<?xml version="1.0" standalone="no"?>
<!DOCTYPE svg PUBLIC "-//W3C//DTD SVG 20010904//EN"
 "http://www.w3.org/TR/2001/REC-SVG-20010904/DTD/svg10.dtd">
<svg version="1.0" xmlns="http://www.w3.org/2000/svg"
 width="256.000000pt" height="256.000000pt" viewBox="0 0 256.000000 256.000000"
 preserveAspectRatio="xMidYMid meet">

<g transform="translate(0.000000,256.000000) scale(0.100000,-0.100000)"
fill="#000000" stroke="none">
<path d="M720 2147 c-39 -12 -140 -107 -140 -131 0 -14 -20 -16 -145 -16 -142
0 -147 -1 -170 -25 -33 -32 -33 -78 0 -110 23 -24 28 -25 170 -25 125 0 145
-2 145 -16 0 -27 101 -119 146 -132 95 -28 168 -8 242 65 28 28 52 59 52 67 0
14 65 16 625 16 l626 0 24 25 c33 32 33 78 0 110 l-24 25 -626 0 c-560 0 -625
2 -625 16 0 27 -101 119 -146 132 -49 14 -106 14 -154 -1z m135 -172 c16 -15
25 -36 25 -55 0 -19 -9 -40 -25 -55 -15 -16 -36 -25 -55 -25 -19 0 -40 9 -55
25 -16 15 -25 36 -25 55 0 19 9 40 25 55 15 16 36 25 55 25 19 0 40 -9 55 -25z"/>
<path d="M1920 1507 c-39 -12 -140 -107 -140 -131 0 -14 -76 -16 -745 -16
l-746 0 -24 -25 c-33 -32 -33 -78 0 -110 l24 -25 746 0 c669 0 745 -2 745 -16
0 -27 101 -119 146 -132 95 -28 168 -8 242 65 28 28 52 59 52 67 0 10 9 16 25
16 36 0 75 42 75 80 0 38 -39 80 -75 80 -16 0 -25 6 -25 16 0 27 -101 119
-146 132 -49 14 -106 14 -154 -1z m135 -172 c16 -15 25 -36 25 -55 0 -19 -9
-40 -25 -55 -15 -16 -36 -25 -55 -25 -19 0 -40 9 -55 25 -16 15 -25 36 -25 55
0 19 9 40 25 55 15 16 36 25 55 25 19 0 40 -9 55 -25z"/>
<path d="M1120 867 c-39 -12 -140 -107 -140 -131 0 -14 -39 -16 -345 -16
l-346 0 -24 -25 c-33 -32 -33 -78 0 -110 l24 -25 346 0 c306 0 345 -2 345 -16
0 -27 101 -119 146 -132 95 -28 168 -8 242 65 28 28 52 59 52 67 0 14 46 16
425 16 l426 0 24 25 c33 32 33 78 0 110 l-24 25 -426 0 c-379 0 -425 2 -425
16 0 27 -101 119 -146 132 -49 14 -106 14 -154 -1z m135 -172 c50 -49 15 -135
-55 -135 -41 0 -80 39 -80 80 0 19 9 40 25 55 15 16 36 25 55 25 19 0 40 -9
55 -25z"/>
</g>
</svg>
